<!-- icon666.com - MILLIONS vector ICONS FREE --><svg xmlns="http://www.w3.org/2000/svg" xmlns:xlink="http://www.w3.org/1999/xlink" version="1.1" id="Layer_1" x="0px" y="0px" viewBox="0 0 490 490" style="enable-background:new 0 0 490 490;" xml:space="preserve"><g><circle style="fill:#1DA2DD;" cx="245" cy="245" r="245"></circle><path style="fill:#FFD833;" d="M446.363,384.599c-44.24,63.7-117.93,105.4-201.36,105.4s-157.12-41.7-201.36-105.4H446.363z"></path><path style="fill:#2F373B;" d="M460.633,106.139v248.487H29.363V106.139c0-22.09,17.91-40,40-40h351.27 C442.723,66.139,460.633,84.049,460.633,106.139z"></path><path style="fill:#F71C55;" d="M430.633,106.139v218.49H59.363v-218.49c0-5.51,4.49-10,10-10h351.27 C426.143,96.139,430.633,100.629,430.633,106.139z"></path><rect x="29.363" y="336.579" style="fill:#151A1C;" width="431.27" height="14.59"></rect><path style="fill:#2F373B;" d="M467.783,347.089c-7.25,15.81-16.14,30.71-26.45,44.49c-5.91,7.9-12.28,15.43-19.08,22.55h-354.5 c-6.8-7.12-13.17-14.65-19.08-22.55c-10.31-13.78-19.2-28.68-26.45-44.49c2.53-0.6,5.17-0.92,7.88-0.92h429.8 C462.613,346.169,465.253,346.489,467.783,347.089z"></path><path style="fill:#151A1C;" d="M282.563,370.579h-75.119c-12.806,0-23.187-10.381-23.187-23.187v-1.223H305.75v1.223 C305.75,360.198,295.369,370.579,282.563,370.579z"></path><path style="fill:#151A1C;" d="M441.333,391.579c-5.91,7.9-12.28,15.43-19.08,22.55h-354.5c-6.8-7.12-13.17-14.65-19.08-22.55 H441.333z"></path><rect x="71.832" y="318.127" style="fill:#151A1C;" width="346.332" height="13"></rect><path style="fill:#151A1C;" d="M419.535,331.127H70.461c-9.719,0-17.598-7.879-17.598-17.598V106.139c0-9.113,7.387-16.5,16.5-16.5 h351.27c9.113,0,16.5,7.387,16.5,16.5v207.389C437.133,323.248,429.254,331.127,419.535,331.127z M71.832,318.127h346.332 c3.297,0,5.969-2.672,5.969-5.969V106.139c0-1.933-1.567-3.5-3.5-3.5H69.363c-1.933,0-3.5,1.567-3.5,3.5v206.018 C65.863,315.454,68.535,318.127,71.832,318.127z"></path><g><path style="fill:#E6E6E6;" d="M146.351,249.374h-43.758c-5.423,0-9.724-3.553-9.724-10.098c0-1.496,0.374-3.553,1.496-5.61 l43.197-84.712c2.805-5.423,7.48-7.48,12.155-7.48c5.049,0,14.586,4.301,14.586,11.033c0,1.122-0.374,2.244-0.935,3.553 l-33.099,66.386h16.082v-13.09c0-6.171,7.293-8.789,14.586-8.789s14.586,2.618,14.586,8.789v13.09h8.041 c5.984,0,8.976,6.732,8.976,13.464c0,6.733-4.489,13.464-8.976,13.464h-8.041v19.823c0,5.983-7.293,8.976-14.586,8.976 s-14.586-2.992-14.586-8.976V249.374z"></path><path style="fill:#E6E6E6;" d="M199.276,235.162v-49.556c0-32.164,20.009-44.133,45.816-44.133 c25.806,0,46.002,11.968,46.002,44.133v49.556c0,32.164-20.196,44.133-46.002,44.133 C219.285,279.295,199.276,267.327,199.276,235.162z M261.922,185.606c0-12.903-6.358-18.7-16.83-18.7 c-10.473,0-16.643,5.797-16.643,18.7v49.556c0,12.903,6.171,18.7,16.643,18.7c10.472,0,16.83-5.797,16.83-18.7V185.606z"></path><path style="fill:#E6E6E6;" d="M350.938,249.374h-43.758c-5.423,0-9.724-3.553-9.724-10.098c0-1.496,0.374-3.553,1.496-5.61 l43.197-84.712c2.805-5.423,7.48-7.48,12.155-7.48c5.049,0,14.586,4.301,14.586,11.033c0,1.122-0.374,2.244-0.935,3.553 l-33.099,66.386h16.082v-13.09c0-6.171,7.293-8.789,14.586-8.789s14.586,2.618,14.586,8.789v13.09h8.041 c5.984,0,8.976,6.732,8.976,13.464c0,6.733-4.489,13.464-8.976,13.464h-8.041v19.823c0,5.983-7.293,8.976-14.586,8.976 s-14.586-2.992-14.586-8.976V249.374z"></path></g></g></svg>