<!-- icon666.com - MILLIONS vector ICONS FREE --><svg viewBox="-28 0 512 512" xmlns="http://www.w3.org/2000/svg"><path d="m448.488281 227.996094c0-121.777344-98.71875-220.496094-220.492187-220.496094-121.777344 0-220.496094 98.71875-220.496094 220.496094 0 107.445312 76.859375 196.925781 178.589844 216.5v47.988281c0 10.695313 12.9375 16.054687 20.5 8.488281l55.03125-55.03125c105.816406-16.191406 186.867187-107.601562 186.867187-217.945312zm0 0" fill="#9e9797"></path><path d="m227.996094 419.011719c-104.769532 0-190.007813-85.234375-190.007813-190.003907 0-104.769531 85.238281-190.007812 190.007813-190.007812 104.769531 0 190.003906 85.238281 190.003906 190.007812 0 104.769532-85.234375 190.003907-190.003906 190.003907zm0 0" fill="#756f6f"></path><path d="m402 229.007812c0 96.097657-77.902344 174.003907-174.003906 174.003907-96.101563 0-174.003906-77.90625-174.003906-174.003907 0-96.101562 77.902343-174.007812 174.003906-174.007812 96.101562 0 174.003906 77.90625 174.003906 174.007812zm0 0" fill="#ff5a96"></path><path d="m402 229.007812c0 96.101563-77.902344 174.003907-174.003906 174.003907-4.261719 0-8.480469-.148438-12.660156-.460938 90.183593-6.480469 161.335937-81.703125 161.335937-173.542969 0-91.84375-71.152344-167.066406-161.335937-173.546874 4.179687-.308594 8.398437-.460938 12.660156-.460938 96.101562 0 174.003906 77.902344 174.003906 174.007812zm0 0" fill="#ff3b82"></path><path d="m297.425781 158.921875c-3.089843-16.152344-12.09375-30.511719-25.359375-40.433594-13.269531-9.921875-29.589844-14.5-45.957031-12.894531-18.199219 1.78125-34.421875 10.683594-45.667969 25.058594-11.25 14.375-15.992187 32.242187-13.351562 50.300781 1.316406 9.015625 9.695312 15.257813 18.710937 13.941406 9.015625-1.320312 15.261719-9.695312 13.941407-18.714843-1.320313-9.042969 1.054687-17.988282 6.691406-25.191407 5.628906-7.195312 13.769531-11.652343 22.898437-12.550781 16.832031-1.652344 32.503907 10.070312 35.679688 26.683594 3.0625 16.027344-5.738281 31.675781-20.953125 37.308594-28.65625 9.164062-46.257813 37.421874-41.890625 67.328124 1.320312 9.015626 9.695312 15.257813 18.714843 13.941407 9.015626-1.316407 15.257813-9.695313 13.941407-18.714844-2.03125-13.886719 6.144531-26.996094 19.46875-31.179687.21875-.066407.429687-.140626.625-.207032.039062-.015625.078125-.027344.117187-.042968 30.703125-11.101563 48.535156-42.488282 42.390625-74.632813zm0 0" fill="#fff5f5"></path><path d="m236.5 329.015625c0 9.925781-8.046875 17.976563-17.976562 17.976563-9.925782 0-17.976563-8.050782-17.976563-17.976563 0-9.929687 8.050781-17.976563 17.976563-17.976563 9.929687 0 17.976562 8.046876 17.976562 17.976563zm0 0" fill="#fff5f5"></path><path d="m389.210938 66.777344c-43.0625-43.0625-100.316407-66.777344-161.214844-66.777344-60.898438 0-118.15625 23.714844-161.21875 66.777344s-66.777344 100.316406-66.777344 161.21875c0 107.046875 74.734375 199.683594 178.589844 222.609375v41.878906c0 7.917969 4.726562 14.992187 12.042968 18.019531 2.429688 1.007813 4.96875 1.496094 7.484376 1.496094 5.066406 0 10.035156-1.980469 13.777343-5.722656l53.308594-53.3125c60.957031-10.019532 115.886719-45.007813 151.011719-96.28125 2.339844-3.417969 1.46875-8.085938-1.949219-10.425782-3.417969-2.339843-8.085937-1.464843-10.429687 1.949219-33.253907 48.546875-85.503907 81.46875-143.347657 90.320313-1.578125.242187-3.039062.980468-4.171875 2.109375l-55.03125 55.03125c-1.921875 1.921875-4.078125 1.324219-4.914062.976562-.835938-.347656-2.78125-1.445312-2.78125-4.164062v-47.988281c0-3.59375-2.550782-6.683594-6.082032-7.363282-99.957031-19.234375-172.507812-107.1875-172.507812-209.132812 0-117.445313 95.550781-212.996094 212.996094-212.996094 117.445312 0 212.992187 95.550781 212.992187 212.996094 0 31.511718-6.726562 61.859375-19.996093 90.203125-1.757813 3.75-.140626 8.214843 3.609374 9.972656s8.21875.140625 9.972657-3.613281c14.210937-30.347656 21.417969-62.835938 21.417969-96.5625 0-60.902344-23.71875-118.15625-66.78125-161.21875zm0 0"></path><path d="m248.078125 409.402344c44.136719-4.863282 84.894531-25.78125 114.757813-58.902344 30.09375-33.371094 46.664062-76.519531 46.664062-121.492188 0-100.082031-81.421875-181.503906-181.503906-181.503906-100.082032 0-181.503906 81.421875-181.503906 181.503906 0 45.703126 17.042968 89.371094 47.996093 122.957032 30.769531 33.386718 72.53125 53.929687 117.597657 57.847656.21875.019531.4375.027344.65625.027344 3.847656 0 7.125-2.945313 7.464843-6.851563.355469-4.128906-2.695312-7.765625-6.824219-8.121093-41.328124-3.59375-79.632812-22.4375-107.863281-53.066407-28.390625-30.8125-44.027343-70.867187-44.027343-112.792969 0-91.8125 74.691406-166.507812 166.503906-166.507812s166.503906 74.695312 166.503906 166.507812c0 41.257813-15.199219 80.835938-42.804688 111.445313-27.398437 30.390625-64.78125 49.578125-105.257812 54.035156-4.117188.457031-7.089844 4.160157-6.636719 8.277344s4.160157 7.085937 8.277344 6.636719zm0 0"></path><path d="m226.84375 113.058594c10.207031-1.003906 20.558594.738281 29.9375 5.039062 3.765625 1.730469 8.21875.074219 9.945312-3.6875 1.726563-3.765625.070313-8.21875-3.691406-9.945312-11.789062-5.40625-24.808594-7.597656-37.65625-6.335938-20.265625 1.984375-38.320312 11.894532-50.847656 27.902344-12.523438 16.007812-17.804688 35.898438-14.867188 56.007812 1.914063 13.09375 14.117188 22.1875 27.21875 20.277344 13.097657-1.914062 22.191407-14.125 20.28125-27.222656-1.023437-6.992188.8125-13.914062 5.175782-19.484375 4.351562-5.566406 10.648437-9.011719 17.726562-9.710937 12.996094-1.273438 25.125 7.785156 27.578125 20.628906 2.355469 12.328125-4.390625 24.421875-16.046875 28.816406-32.042968 10.335938-51.738281 42.058594-46.851562 75.496094.925781 6.34375 4.269531 11.945312 9.410156 15.777344 4.1875 3.121093 9.160156 4.757812 14.289062 4.757812 1.167969 0 2.34375-.085938 3.519532-.257812 6.34375-.925782 11.945312-4.265626 15.777344-9.40625 3.828124-5.144532 5.429687-11.46875 4.5-17.8125-1.492188-10.222657 4.519531-19.867188 14.3125-22.945313.285156-.089844.566406-.183594.824218-.273437.082032-.027344.164063-.058594.25-.089844 34.164063-12.378906 54-47.308594 47.160156-83.074219-1.960937-10.261719-6.011718-19.804687-12.039062-28.367187-2.382812-3.390626-7.0625-4.203126-10.449219-1.816407-3.386719 2.382813-4.199219 7.0625-1.816406 10.449219 4.796875 6.8125 8.015625 14.398438 9.574219 22.550781 5.445312 28.5-10.355469 56.328125-37.578125 66.171875-.015625.003906-.027344.007813-.042969.015625-.011719.003907-.027344.007813-.042969.015625-.113281.039063-.238281.082032-.351562.117188-16.84375 5.285156-27.210938 21.863281-24.644531 39.417968.71875 4.910157-2.691407 9.488282-7.601563 10.207032-2.382813.351562-4.753906-.25-6.679687-1.6875-1.929688-1.4375-3.183594-3.535156-3.527344-5.917969-3.832032-26.207031 11.625-51.0625 36.75-59.097656.105468-.03125.214844-.070313.320312-.109375 18.648438-6.90625 29.464844-26.144532 25.714844-45.753906-3.894531-20.382813-23.125-34.765626-43.777344-32.738282-11.203125 1.105469-21.171875 6.570313-28.074218 15.394532-6.910157 8.832031-9.824219 19.808593-8.203126 30.898437.71875 4.910156-2.695312 9.492187-7.605468 10.207031-4.90625.714844-9.488282-2.691406-10.207032-7.601562-2.339843-16.011719 1.867188-31.847656 11.839844-44.597656 9.972656-12.746094 24.351563-20.636719 40.496094-22.214844zm0 0"></path><path d="m218.507812 354.492188c1.222657 0 2.457032-.089844 3.699219-.269532 13.902344-2.03125 23.558594-14.992187 21.523438-28.894531-2.03125-13.898437-14.988281-23.550781-28.890625-21.523437-13.898438 2.03125-23.554688 14.992187-21.523438 28.894531 1.847656 12.65625 12.761719 21.792969 25.191406 21.792969zm-1.496093-35.84375c.511719-.074219 1.023437-.113282 1.535156-.113282 2.238281 0 4.410156.71875 6.234375 2.078125 2.246094 1.671875 3.703125 4.117188 4.109375 6.886719.835937 5.714844-3.136719 11.042969-8.851563 11.882812-5.710937.828126-11.046874-3.136718-11.882812-8.851562-.832031-5.71875 3.136719-11.046875 8.855469-11.882812zm0 0"></path></svg>