<!-- icon666.com - MILLIONS vector ICONS FREE --><svg enable-background="new 0 0 512 512" viewBox="0 0 512 512" xmlns="http://www.w3.org/2000/svg"><g id="_x31_024_x2C__Arrow_x2C__Direction_x2C__Left"><g><path d="m101.001 406c11.04 0 20 8.951 20 20 0 11.041-8.96 20-20 20-11.05 0-20-8.959-20-20 0-11.049 8.951-20 20-20z" fill="#9bc9ff"></path><path d="m436.002 236c13.8 0 25 11.19 25 25 0 13.801-11.2 25-25 25-13.811 0-25-11.199-25-25 0-13.81 11.189-25 25-25z" fill="#9bc9ff"></path><path d="m91.001 56c16.56 0 30 13.43 30 30s-13.44 30-30 30c-16.57 0-30-13.43-30-30s13.431-30 30-30z" fill="#9bc9ff"></path><path d="m431.002 86-100 170 100 170c-30.98 0-60.801-8.199-86.811-23.07-26-14.869-48.189-36.43-63.9-63.129l-49.29-83.801 49.29-83.81c31.42-53.4 88.75-86.19 150.711-86.19z" fill="#9bc9ff"></path><path d="m281.002 86-100 170 100 170c-30.98 0-60.8-8.199-86.811-23.07-26-14.869-48.19-36.43-63.9-63.129l-49.29-83.801 49.29-83.81c31.42-53.4 88.751-86.19 150.711-86.19z" fill="#fff"></path><g fill="#1e81ce"><path d="m458.411 170.66c1.75 5.24-1.079 10.91-6.319 12.65-5.24 1.75-10.9-1.08-12.65-6.32s1.08-10.9 6.32-12.65 10.91 1.08 12.649 6.32z"></path><path d="m440.481 332.83c1.75 5.24-1.09 10.91-6.32 12.65-5.239 1.75-10.909-1.08-12.649-6.32-1.75-5.24 1.08-10.91 6.32-12.65 5.239-1.75 10.899 1.08 12.649 6.32z"></path><path d="m350.492 462.84c1.739 5.24-1.091 10.9-6.331 12.65-5.239 1.74-10.899-1.09-12.649-6.33-1.74-5.24 1.09-10.9 6.33-12.65 5.24-1.74 10.9 1.09 12.65 6.33z"></path><path d="m250.481 42.84c1.75 5.24-1.09 10.9-6.32 12.65-5.24 1.74-10.91-1.09-12.649-6.33-1.75-5.24 1.08-10.9 6.32-12.65 5.239-1.74 10.899 1.09 12.649 6.33z"></path><path d="m70.481 372.84c1.75 5.24-1.08 10.9-6.321 12.65-5.239 1.74-10.909-1.09-12.649-6.33-1.75-5.24 1.08-10.9 6.32-12.65 5.24-1.74 10.9 1.09 12.65 6.33z"></path><path d="m60.492 162.84c1.74 5.24-1.09 10.9-6.331 12.65-5.239 1.74-10.899-1.09-12.649-6.33-1.74-5.24 1.09-10.9 6.33-12.65 5.24-1.74 10.9 1.09 12.65 6.33z"></path><path d="m431.021 436c-.008 0-.014 0-.02 0-32.131 0-63.865-8.434-91.773-24.389-27.892-15.951-51.252-39.029-67.556-66.74l-49.291-83.801c-1.84-3.13-1.84-7.01 0-10.14l49.29-83.81c16.299-27.702 39.66-50.776 67.558-66.731 27.9-15.955 59.634-24.389 91.773-24.389 3.587 0 6.898 1.921 8.68 5.035s1.758 6.943-.062 10.035l-97.016 164.93 96.716 164.418c1.075 1.594 1.702 3.516 1.702 5.582-.001 5.523-4.477 10-10.001 10zm-188.418-180 46.308 78.731c14.54 24.713 35.372 45.295 60.245 59.52 19.635 11.225 41.395 18.275 63.773 20.752l-90.546-153.933c-1.842-3.13-1.842-7.011 0-10.141l90.543-153.924c-51.179 5.706-97.604 35.367-124.016 80.256z"></path><path d="m281.021 436c-.008 0-.014 0-.02 0-32.131 0-63.865-8.434-91.774-24.389-27.891-15.951-51.251-39.029-67.555-66.74l-49.29-83.801c-1.84-3.13-1.84-7.01 0-10.14l49.29-83.81c16.3-27.702 39.66-50.776 67.558-66.731s59.633-24.389 91.772-24.389c3.587 0 6.898 1.921 8.68 5.035s1.758 6.943-.062 10.035l-97.017 164.93 96.716 164.418c1.075 1.594 1.702 3.516 1.702 5.582 0 5.523-4.476 10-10 10zm-188.418-180 46.308 78.731c14.54 24.713 35.373 45.295 60.246 59.52 19.634 11.225 41.395 18.275 63.773 20.752l-90.548-153.933c-1.841-3.13-1.841-7.011 0-10.141l90.543-153.924c-51.179 5.706-97.603 35.367-124.016 80.256z"></path><path d="m91.001 126c-22.056 0-40-17.944-40-40s17.944-40 40-40 40 17.944 40 40-17.943 40-40 40zm0-60c-11.028 0-20 8.972-20 20s8.972 20 20 20 20-8.972 20-20-8.972-20-20-20z"></path><path d="m101.001 456c-16.542 0-30-13.457-30-30 0-16.541 13.458-30 30-30s30 13.459 30 30c0 16.543-13.458 30-30 30zm0-40c-5.514 0-10 4.486-10 10s4.486 10 10 10 10-4.486 10-10-4.485-10-10-10z"></path><path d="m436.002 296c-19.299 0-35-15.701-35-35s15.701-35 35-35 35 15.701 35 35-15.701 35-35 35zm0-50c-8.271 0-15 6.729-15 15s6.729 15 15 15 15-6.729 15-15-6.73-15-15-15z"></path></g></g></g></svg>