<!-- icon666.com - MILLIONS vector ICONS FREE --><svg viewBox="0 -13 512.00103 512" xmlns="http://www.w3.org/2000/svg"><path d="m249.089844 357.003906-127.84375-158.738281 62.625-50.238281 70.582031 87.511718 189.027344-195.175781 57.90625 55.832031zm0 0" fill="#d7fc7e"></path><path d="m478.445312 242.972656c0-20.011718-26.121093-36.328125-31.054687-54.785156-3.027344-11.320312.773437-25.472656 2.351563-38.605469l-200.652344 207.421875-127.84375-158.738281 62.625-50.238281 70.582031 87.515625 137.910156-142.398438c-13.558593-13.871093-14.757812-44.363281-31.628906-54.125-16.722656-9.675781-43.878906 4.636719-62.976563-.464843-18.457031-4.933594-34.769531-31.054688-54.785156-31.054688-20.011718 0-36.324218 26.121094-54.78125 31.054688-19.097656 5.101562-46.257812-9.210938-62.980468.464843-16.960938 9.8125-18.078126 40.578125-31.84375 54.34375-13.765626 13.765625-44.535157 14.886719-54.347657 31.847657-9.675781 16.722656 4.640625 43.878906-.464843 62.976562-4.933594 18.457031-31.054688 34.773438-31.054688 54.785156 0 20.011719 26.121094 36.324219 31.054688 54.785156 5.101562 19.097657-9.210938 46.253907.464843 62.976563 9.8125 16.960937 40.578125 18.082031 54.34375 31.847656 13.765625 13.761719 14.886719 44.53125 31.847657 54.34375 16.722656 9.675781 43.878906-4.636719 62.976562.464844 18.457031 4.933594 34.773438 31.054687 54.785156 31.054687 20.011719 0 36.328125-26.121093 54.785156-31.054687 19.097657-5.101563 46.253907 9.210937 62.976563-.464844 16.960937-9.8125 18.078125-40.582031 31.847656-54.34375 13.761719-13.765625 44.53125-14.886719 54.34375-31.847656 9.675781-16.722656-4.636719-43.878906.464844-62.976563 4.933594-18.460937 31.054687-34.773437 31.054687-54.785156zm0 0" fill="#57a4ff"></path><path d="m284.453125 235.539062 174.539063-180.214843-15.511719-14.960938-172.65625 178.277344zm0 0" fill="#a4e276"></path><path d="m151.246094 198.265625 44.410156-35.625-11.785156-14.613281-62.625 50.238281 127.84375 158.738281 16.371094-16.921875zm0 0" fill="#a4e276"></path><g fill="#006df0"><path d="m213.871094 148.027344-18.214844 14.613281 58.796875 72.898437 16.371094-16.898437zm0 0"></path><path d="m265.460938 340.082031 13.628906 16.921875 167.476562-173.125c-1.296875-10.484375 1.789063-22.78125 3.175782-34.296875zm0 0"></path><path d="m327.753906 38.554688c8.808594 2.351562 19.328125.578124 29.75-1.070313-9.109375-3.484375-20.613281-1.484375-32.085937.328125.773437.285156 1.554687.53125 2.335937.742188zm0 0"></path><path d="m327.757812 447.390625c-.785156.210937-1.566406.457031-2.339843.738281 11.476562 1.8125 22.976562 3.816406 32.085937.332032-10.421875-1.648438-20.941406-3.425782-29.746094-1.070313zm0 0"></path><path d="m218.1875 447.390625c-8.21875-2.195313-17.929688-.796875-27.660156.738281 17.511718 6.367188 33.28125 30.316406 52.445312 30.316406 5.21875 0 10.183594-1.777343 15-4.488281-13.664062-7.691406-26.140625-22.917969-39.785156-26.566406zm0 0"></path><path d="m218.1875 38.554688c13.644531-3.648438 26.121094-18.878907 39.785156-26.570313-4.816406-2.710937-9.78125-4.484375-15-4.484375-19.164062 0-34.933594 23.949219-52.445312 30.3125 9.730468 1.539062 19.441406 2.9375 27.660156.742188zm0 0"></path><path d="m155.210938 446.925781c-16.960938-9.8125-18.082032-40.582031-31.847657-54.347656-13.765625-13.761719-44.53125-14.882813-54.34375-31.847656-9.675781-16.71875 4.636719-43.878907-.464843-62.976563-4.933594-18.457031-31.054688-34.769531-31.054688-54.78125 0-20.011718 26.121094-36.328125 31.054688-54.785156 5.101562-19.097656-9.210938-46.253906.464843-62.976562 9.8125-16.960938 40.578125-18.082032 54.34375-31.847657 13.765625-13.761719 14.886719-44.53125 31.847657-54.34375 1.039062-.601562 2.117187-1.109375 3.230468-1.535156-12.179687-1.925781-24.21875-3.679687-33.230468 1.535156-16.960938 9.8125-18.082032 40.582031-31.847657 54.34375-13.765625 13.765625-44.53125 14.886719-54.34375 31.847657-9.675781 16.722656 4.636719 43.878906-.464843 62.976562-4.933594 18.457031-31.054688 34.773438-31.054688 54.785156 0 20.011719 26.121094 36.324219 31.054688 54.785156 5.101562 19.097657-9.210938 46.253907.464843 62.976563 9.8125 16.960937 40.578125 18.082031 54.34375 31.847656 13.765625 13.761719 14.886719 44.53125 31.847657 54.34375 9.011718 5.214844 21.050781 3.460938 33.230468 1.535157-1.113281-.425782-2.191406-.933594-3.230468-1.535157zm0 0"></path></g><path d="m185.015625 137.5-74.324219 59.617188 137.886719 171.203124 263.421875-272.304687-68.699219-66.242187-188.332031 194.457031zm258.648437-86.542969 47.109376 45.425781-241.167969 249.300782-117.804688-146.269532 50.929688-40.855468 71.210937 88.292968zm0 0"></path><path d="m150.574219 206.800781 11.683593-9.40625 85.125 105.699219-11.683593 9.410156zm0 0"></path><path d="m242.972656 398.71875c-85.878906 0-155.75-69.867188-155.75-155.746094h-14.996094c0 94.148438 76.597657 170.746094 170.746094 170.746094 94.152344 0 170.75-76.597656 170.75-170.746094 0-6.472656-.367187-13-1.09375-19.398437l-14.902344 1.6875c.660157 5.839843.996094 11.800781.996094 17.710937 0 85.878906-69.871094 155.746094-155.75 155.746094zm0 0"></path><path d="m454.636719 186.25c-.394531-1.46875-.648438-3.089844-.78125-4.953125l-14.960938 1.0625c.199219 2.824219.609375 5.363281 1.25 7.765625 2.589844 9.683594 9.527344 18.199219 16.238281 26.441406 7.488282 9.191406 14.5625 17.875 14.5625 26.40625 0 8.527344-7.074218 17.210938-14.5625 26.40625-6.710937 8.238282-13.648437 16.757813-16.238281 26.4375-2.695312 10.101563-.933593 21.222656.769531 31.984375 1.8125 11.441407 3.527344 22.25-.480468 29.175781-4.109375 7.105469-14.4375 11.042969-25.375 15.214844-10.085938 3.84375-20.519532 7.820313-27.78125 15.085938-7.261719 7.261718-11.238282 17.691406-15.085938 27.777344-4.167968 10.9375-8.109375 21.269531-15.210937 25.378906-6.921875 4.007812-17.734375 2.292968-29.175781.480468-10.761719-1.707031-21.882813-3.46875-31.984376-.769531-9.683593 2.585938-18.203124 9.527344-26.441406 16.238281-9.191406 7.488282-17.875 14.558594-26.40625 14.558594s-17.210937-7.070312-26.40625-14.5625c-8.238281-6.707031-16.757812-13.648437-26.441406-16.234375-10.09375-2.699219-21.222656-.9375-31.980469.765625-11.441406 1.816406-22.25 3.527344-29.175781-.476562-7.105469-4.113282-11.042969-14.441406-15.214844-25.378906-3.84375-10.085938-7.820312-20.519532-15.085937-27.78125-7.261719-7.261719-17.691407-11.238282-27.777344-15.085938-10.9375-4.167969-21.269531-8.105469-25.378906-15.210938-4.007813-6.925781-2.292969-17.734374-.480469-29.175781 1.707031-10.761719 3.46875-21.882812.769531-31.984375-2.585937-9.679687-9.527343-18.199218-16.238281-26.4375-7.488281-9.191406-14.5625-17.875-14.5625-26.40625s7.074219-17.214844 14.558594-26.40625c6.710937-8.238281 13.652344-16.757812 16.238281-26.441406 2.699219-10.097656.9375-21.222656-.769531-31.980469-1.8125-11.445312-3.523438-22.253906.480468-29.175781 4.113282-7.105469 14.441407-11.042969 25.378907-15.214844 10.085937-3.84375 20.519531-7.824218 27.78125-15.085937s11.238281-17.691407 15.085937-27.78125c4.167969-10.933594 8.109375-21.265625 15.210938-25.375 6.925781-4.007813 17.734375-2.292969 29.175781-.480469 10.761719 1.707031 21.886719 3.46875 31.984375.769531 9.679688-2.589843 18.199219-9.527343 26.4375-16.238281 9.195312-7.488281 17.878906-14.5625 26.410156-14.5625 8.527344 0 17.210938 7.074219 26.40625 14.5625 8.238282 6.710938 16.757813 13.648438 26.4375 16.238281 10.097656 2.699219 21.222656.9375 31.984375-.769531 11.441407-1.8125 22.25-3.527344 29.175781.480469 7.105469 4.113281 11.046876 14.445312 15.21875 25.382812.890626 2.335938 1.8125 4.75 2.769532 7.113281l13.898437-5.644531c-.898437-2.210937-1.789062-4.554687-2.652343-6.816406-4.921876-12.902344-10.007813-26.242187-21.722657-33.019531-11.527343-6.671875-25.511719-4.453125-39.035156-2.3125-9.214844 1.460937-18.742187 2.96875-25.761719 1.09375-6.578125-1.757813-13.503906-7.402344-20.839844-13.378906-10.824218-8.8125-22.015624-17.929688-35.878906-17.929688-13.867187 0-25.058594 9.117188-35.882812 17.929688-7.332032 5.976562-14.261719 11.621093-20.839844 13.378906-7.019531 1.875-16.546875.367187-25.761719-1.09375-13.519531-2.140625-27.503906-4.359375-39.035156 2.3125-11.710937 6.777344-16.796875 20.117187-21.714844 33.015625-3.4375 9.011719-6.683593 17.523437-11.679687 22.519531-4.992188 4.996094-13.503906 8.242188-22.515625 11.675781-12.902344 4.917969-26.242188 10.003907-33.019531 21.71875-6.667969 11.527344-4.453126 25.511719-2.3125 39.035157 1.460937 9.214843 2.972656 18.738281 1.09375 25.761718-1.757813 6.578125-7.402344 13.507813-13.375 20.839844-8.8125 10.820312-17.929688 22.011719-17.929688 35.878906 0 13.867188 9.117188 25.058594 17.933594 35.878906 5.972656 7.335938 11.617187 14.265626 13.375 20.839844 1.875 7.023438.367187 16.550782-1.09375 25.761719-2.140625 13.523437-4.359375 27.507813 2.3125 39.035156 6.777344 11.710938 20.117187 16.800781 33.015625 21.71875 9.011719 3.4375 17.523437 6.679688 22.519531 11.675781 4.996094 4.996094 8.242188 13.507813 11.675781 22.519532 4.917969 12.898437 10.003907 26.238281 21.71875 33.015625 11.527344 6.671875 25.511719 4.457031 39.035157 2.3125 9.210937-1.460938 18.738281-2.96875 25.761718-1.09375 6.574219 1.757812 13.503906 7.402343 20.839844 13.378906 10.824219 8.8125 22.015625 17.929687 35.878906 17.929687 13.867188 0 25.058594-9.117187 35.878906-17.929687 7.335938-5.976563 14.265626-11.621094 20.84375-13.378906 7.019532-1.875 16.546876-.367188 25.761719 1.09375 13.519531 2.144531 27.503907 4.359375 39.03125-2.3125 11.714844-6.777344 16.800781-20.117188 21.71875-33.015625 3.4375-9.011719 6.683594-17.523438 11.679688-22.519532 4.996093-4.996093 13.503906-8.242187 22.515625-11.675781 12.902344-4.917969 26.242187-10.003906 33.019531-21.71875 6.667969-11.527343 4.453125-25.511719 2.308594-39.035156-1.457031-9.214844-2.96875-18.738281-1.089844-25.761719 1.757813-6.578125 7.398437-13.503906 13.375-20.839844 8.816406-10.824218 17.929687-22.015624 17.929687-35.878906 0-13.867187-9.113281-25.058594-17.929687-35.878906-5.976563-7.335938-11.621094-14.265625-13.378906-20.84375zm0 0"></path><path d="m287.261719 248.378906-10.773438-10.4375 10.4375-10.773437 10.773438 10.4375zm17.394531-17.957031-10.777344-10.4375 10.4375-10.773437 10.773438 10.4375zm17.390625-17.957031-10.773437-10.4375 127.425781-131.570313 10.773437 10.4375zm0 0" fill="#fff"></path><path d="m95.3125 193.292969-14.21875-4.777344c1.660156-4.9375 3.574219-9.859375 5.6875-14.628906l13.714844 6.078125c-1.925782 4.34375-3.671875 8.828125-5.183594 13.328125zm9.3125-21.929688-13.316406-6.90625c2.398437-4.625 5.042968-9.191406 7.855468-13.578125l12.625 8.101563c-2.566406 4-4.976562 8.167969-7.164062 12.382812zm12.558594-20.253906-12.105469-8.855469c15.53125-21.230468 36.054687-38.839844 59.351563-50.929687 24.074218-12.496094 51.238281-19.101563 78.542968-19.101563 38.660156 0 75.121094 12.601563 105.445313 36.441406l-9.273438 11.792969c-27.652343-21.742187-60.910156-33.234375-96.171875-33.234375-49.5 0-96.519531 23.882813-125.789062 63.886719zm0 0" fill="#fff"></path></svg>