<svg viewBox="0 0 32 32" xmlns="http://www.w3.org/2000/svg" xmlns:xlink="http://www.w3.org/1999/xlink"><linearGradient id="linear-gradient" gradientUnits="userSpaceOnUse" x1="30.06" x2="2.48" y1="1.94" y2="29.52"><stop offset="0" stop-color="#39b54a"></stop><stop offset="1" stop-color="#27aae1"></stop></linearGradient><g id="Layer_2" fill="url(#linear-gradient)" data-name="Layer 2"><path d="m21.08 13.38a7.18 7.18 0 0 0 -10.16 0l-2.27 2.27a.48.48 0 0 0 0 .7l2.27 2.27a7.17 7.17 0 0 0 10.16 0l2.27-2.27a.48.48 0 0 0 0-.7zm-.7 4.54a6.21 6.21 0 0 1 -8.76 0l-1.91-1.92 1.91-1.92a6.21 6.21 0 0 1 8.76 0l1.91 1.92z"></path><path d="m16 13.5a2.5 2.5 0 1 0 2.5 2.5 2.5 2.5 0 0 0 -2.5-2.5zm0 4a1.5 1.5 0 1 1 1.5-1.5 1.5 1.5 0 0 1 -1.5 1.5z"></path></g></svg>