<svg viewBox="0 0 32 32" xmlns="http://www.w3.org/2000/svg" xmlns:xlink="http://www.w3.org/1999/xlink"><linearGradient id="linear-gradient" gradientUnits="userSpaceOnUse" x1="29.84" x2="2.55" y1="1.93" y2="29.22"><stop offset="0" stop-color="#39b54a"></stop><stop offset="1" stop-color="#27aae1"></stop></linearGradient><g id="Layer_2" data-name="Layer 2"><path d="m21.08 13.14a8.67 8.67 0 0 0 -.83-.69l2.1-2.1a.49.49 0 1 0 -.7-.7l-2.28 2.27a7.12 7.12 0 0 0 -8.45 1.23l-2.27 2.27a.48.48 0 0 0 0 .7l2.27 2.28a7.5 7.5 0 0 0 1.1.87l-2.37 2.38a.48.48 0 0 0 0 .7.48.48 0 0 0 .7 0l2.57-2.56a7.17 7.17 0 0 0 8.16-1.4l2.27-2.27a.48.48 0 0 0 0-.7zm-6.58 2.63a1.5 1.5 0 0 1 1.5-1.5 1.43 1.43 0 0 1 .79.23l-2.06 2.07a1.49 1.49 0 0 1 -.23-.8zm-4.79 0 1.91-1.92a6.14 6.14 0 0 1 7-1.2l-1.13 1.13a2.5 2.5 0 0 0 -3.5 3.5l-1.28 1.28a7 7 0 0 1 -1.11-.87zm10.67 1.92a6.24 6.24 0 0 1 -6.72 1.31l1.39-1.39 1.29-1.28 3.2-3.2a5.82 5.82 0 0 1 .84.68l1.91 1.92z" fill="url(#linear-gradient)"></path></g></svg>