<svg viewBox="-46 0 512 512.002" xmlns="http://www.w3.org/2000/svg"><g fill-rule="evenodd"><path d="m120.570312 210.203125v44.871094c0 6.722656.488282 13.128906 1.398438 19.230469 1.5625 10.492187 4.363281 20.078124 8.03125 28.796874 20.9375 49.726563 70.21875 71.203126 80 71.203126s59.0625-21.476563 80-71.203126c3.667969-8.71875 6.46875-18.304687 8.03125-28.796874.910156-6.101563 1.398438-12.507813 1.398438-19.230469v-44.875c-18.605469 0-44.40625-14.121094-50.242188-35.894531h-78.375c-5.835938 21.777343-31.636719 35.898437-50.242188 35.898437zm72.816407 24.863281 16.613281 16.613282 16.609375-16.613282c6.25-6.246094 16.378906-6.246094 22.625 0 6.25 6.25 6.25 16.378906 0 22.625l-16.609375 16.613282 16.609375 16.613281c6.25 6.246093 6.25 16.375 0 22.625-6.246094 6.246093-16.375 6.246093-22.625 0l-16.609375-16.613281-16.613281 16.613281c-6.246094 6.246093-16.378907 6.246093-22.625 0-6.246094-6.25-6.246094-16.378907 0-22.625l16.613281-16.613281-16.613281-16.613282c-6.246094-6.246094-6.246094-16.375 0-22.625 6.25-6.246094 16.378906-6.246094 22.625 0zm0 0" fill="#ffba4a"></path><path d="m170.761719 235.066406c-6.246094 6.25-6.246094 16.378906 0 22.625l16.613281 16.613282-16.613281 16.613281c-6.246094 6.246093-6.246094 16.375 0 22.625 6.25 6.246093 16.378906 6.246093 22.625 0l16.613281-16.613281 16.609375 16.613281c6.25 6.246093 16.378906 6.246093 22.625 0 6.25-6.25 6.25-16.378907 0-22.625l-16.609375-16.613281 16.609375-16.613282c6.25-6.246094 6.25-16.375 0-22.625-6.246094-6.246094-16.375-6.246094-22.625 0l-16.609375 16.613282-16.613281-16.613282c-6.246094-6.246094-16.375-6.246094-22.625 0zm0 0" fill="#fd4848"></path><path d="m327.726562 274.304688c44.832032 0 82.273438-36.234376 82.273438-82.234376 0-45.414062-36.835938-82.230468-82.273438-82.230468 0-55.140625-44.71875-99.839844-99.882812-99.839844-55.160156 0-99.871094 44.683594-99.886719 99.8125v.027344c-34.082031 0-61.707031 27.613281-61.707031 61.675781 0 7.207031 1.242188 14.128906 3.515625 20.554687h-18.628906c-22.625 0-41.136719 18.503907-41.136719 41.117188s18.511719 41.117188 41.136719 41.117188h70.832031c-.910156-6.101563-1.398438-12.507813-1.398438-19.230469v-44.875c18.605469 0 44.40625-14.121094 50.242188-35.894531h78.375c5.835938 21.773437 31.636719 35.894531 50.242188 35.894531v44.875c0 6.722656-.488282 13.128906-1.398438 19.230469zm0 0" fill="#f2f2f2"></path><path d="m58 420c0 13.253906-10.746094 24-24 24s-24-10.746094-24-24 10.746094-24 24-24 24 10.746094 24 24zm0 0" fill="#ff934f"></path><path d="m234 478c0 13.253906-10.746094 24-24 24s-24-10.746094-24-24 10.746094-24 24-24 24 10.746094 24 24zm0 0" fill="#ff934f"></path><path d="m410 420c0 13.253906-10.746094 24-24 24s-24-10.746094-24-24 10.746094-24 24-24 24 10.746094 24 24zm0 0" fill="#ff934f"></path></g><path d="m386 386c-15.269531 0-28.21875 10.117188-32.5 24h-47.5c-3.253906 0-6-2.746094-6-6v-98.941406c2.582031-6.421875 4.761719-13.328125 6.371094-20.753906h21.355468c50.878907 0 92.269532-41.375 92.269532-92.230469 0-47.621094-36.285156-86.925781-82.675782-91.738281-2.238281-26.203126-13.699218-50.515626-32.6875-69.0625-20.644531-20.167969-47.917968-31.273438-76.792968-31.273438-28.984375 0-56.335938 11.183594-77.007813 31.484375-18.90625 18.570313-30.285156 42.839844-32.484375 68.988281-6.851562.925782-13.609375 2.84375-20.039062 5.765625-5.027344 2.285157-7.25 8.210938-4.96875 13.238281 2.285156 5.03125 8.21875 7.253907 13.242187 4.96875 15.15625-6.886718 32.808594-6.027343 47.226563 2.292969 4.78125 2.761719 10.898437 1.121094 13.660156-3.660156 2.761719-4.785156 1.121094-10.898437-3.660156-13.660156-7.921875-4.574219-16.542969-7.519531-25.378906-8.820313 4.679687-45.082031 43.304687-80.597656 89.410156-80.597656 45.949218 0 84.628906 35.464844 89.394531 80.425781-20.667969 2.324219-39.800781 11.503907-54.726563 26.429688-3.902343 3.902343-3.902343 10.234375 0 14.140625 3.90625 3.90625 10.238282 3.90625 14.144532 0 13.644531-13.644532 31.78125-21.15625 51.074218-21.15625 39.851563 0 72.273438 32.40625 72.273438 72.234375s-32.421875 72.230469-72.273438 72.230469h-18.59375c.191407-3.007813.296876-6.082032.296876-9.230469v-44.871094c0-5.523437-4.476563-10-10-10-13.757813 0-35.855469-10.835937-40.582032-28.484375-1.171875-4.371094-5.132812-7.414062-9.660156-7.414062h-78.375c-4.523438 0-8.484375 3.042968-9.65625 7.414062-4.730469 17.648438-26.828125 28.484375-40.585938 28.484375-5.523437 0-10 4.476563-10 10v44.871094c0 3.148437.105469 6.222656.296876 9.230469h-59.730469c-17.167969 0-31.136719-13.957032-31.136719-31.113282 0-17.160156 13.96875-31.117187 31.136719-31.117187h18.628906c3.25 0 6.292969-1.574219 8.167969-4.226563s2.34375-6.046875 1.261718-9.109375c-1.953124-5.519531-2.945312-11.3125-2.945312-17.222656 0-5.523437-4.476562-10-10-10-5.519531 0-10 4.476563-10 10 0 3.554687.261719 7.078125.777344 10.558594h-5.890625c-28.195313 0-51.136719 22.929687-51.136719 51.117187 0 28.183594 22.9375 51.113282 51.136719 51.113282h62.492187c1.609375 7.425781 3.789063 14.335937 6.375 20.757812v98.941406c0 3.25-2.75 6-6 6h-47.503906c-4.28125-13.882812-17.230469-24-32.5-24-18.746094 0-33.99609375 15.25-33.99609375 34 0 18.746094 15.24999975 34 33.99609375 34 15.269531 0 28.21875-10.117187 32.5-24h47.503906c14.335938 0 26-11.664062 26-26v-65.140625c4.578125 5.640625 9.285156 10.550781 13.796875 14.730469 16.132813 14.957031 34.101563 24.695312 46.199219 28.671875v63.238281c-13.882812 4.28125-24 17.230469-24 32.5 0 18.746094 15.253906 34 34 34 18.75 0 34-15.253906 34-34 0-15.269531-10.117188-28.21875-24-32.5v-63.238281c12.101562-3.980469 30.070312-13.714844 46.199219-28.671875 4.511719-4.183594 9.21875-9.089844 13.800781-14.730469v65.140625c0 14.335938 11.664062 26 26 26h47.503906c4.277344 13.882813 17.226563 24 32.496094 24 18.746094 0 34-15.253906 34-34 0-18.75-15.253906-34.003906-34-34.003906zm-352 48c-7.71875 0-14-6.28125-14-14s6.28125-14 14-14c7.722656 0 14 6.28125 14 14s-6.277344 14-14 14zm176 58c-7.71875 0-14-6.28125-14-14s6.28125-14 14-14 14 6.28125 14 14-6.28125 14-14 14zm43.421875-153.839844c-19.609375 18.507813-39.484375 25.734375-43.421875 26.136719-3.941406-.402344-23.8125-7.632813-43.421875-26.136719-16.425781-15.507812-36.007813-42.507812-36.007813-83.085937v-35.855469c18.691407-3.554688 38.71875-16.507812 47.210938-34.914062h64.4375c8.492188 18.40625 28.515625 31.359374 47.210938 34.914062v35.855469c0 40.578125-19.582032 67.582031-36.007813 83.085937zm132.578125 95.839844c-7.71875 0-13.996094-6.273438-14-13.988281v-.019531c.003906-7.71875 6.28125-13.992188 14-13.992188s14 6.28125 14 14-6.28125 14-14 14zm0 0"></path><path d="m68.703125 151.28125c1.519531.828125 3.160156 1.222656 4.777344 1.222656 3.515625 0 6.921875-1.855468 8.746093-5.136718.007813-.015626.015626-.027344.023438-.039063 2.527344-4.515625 1.191406-10.28125-3.183594-13.199219-4.597656-3.0625-10.804687-1.820312-13.867187 2.773438-.164063.242187-.316407.496094-.457031.757812-.011719.019532-.019532.035156-.03125.054688-2.644532 4.847656-.855469 10.921875 3.992187 13.566406zm0 0"></path><path d="m156.234375 468h-.234375c-5.523438 0-10 4.476562-10 10s4.476562 10 10 10h.234375c5.523437 0 10-4.476562 10-10s-4.476563-10-10-10zm0 0"></path><path d="m264 468h-.234375c-5.523437 0-10 4.476562-10 10s4.476563 10 10 10h.234375c5.523438 0 10-4.476562 10-10s-4.476562-10-10-10zm0 0"></path><path d="m34 463.765625c-5.519531 0-10 4.476563-10 10v.234375c0 5.523438 4.480469 10 10 10 5.523438 0 10-4.476562 10-10v-.234375c0-5.523437-4.476562-10-10-10zm0 0"></path><path d="m386 463.765625c-5.523438 0-10 4.476563-10 10v.234375c0 5.523438 4.476562 10 10 10 5.519531 0 10-4.476562 10-10v-.234375c0-5.523437-4.480469-10-10-10zm0 0"></path><path d="m44 366.234375v-.234375c0-5.523438-4.476562-10-10-10-5.519531 0-10 4.476562-10 10v.234375c0 5.523437 4.480469 10 10 10 5.523438 0 10-4.476563 10-10zm0 0"></path><path d="m376 366v.234375c0 5.523437 4.476562 10 10 10 5.519531 0 10-4.476563 10-10v-.234375c0-5.523438-4.480469-10-10-10-5.523438 0-10 4.476562-10 10zm0 0"></path><path d="m263.921875 246.378906c0-6.945312-2.703125-13.472656-7.613281-18.382812s-11.4375-7.613282-18.382813-7.613282c-6.945312 0-13.476562 2.703126-18.386719 7.613282l-9.539062 9.539062-9.539062-9.539062c-10.136719-10.136719-26.632813-10.140625-36.769532 0-10.136718 10.136718-10.136718 26.628906 0 36.769531l9.539063 9.539063-9.539063 9.542968c-4.910156 4.910156-7.613281 11.4375-7.613281 18.382813 0 6.941406 2.703125 13.472656 7.613281 18.382812 10.136719 10.136719 26.628906 10.136719 36.769532 0l9.539062-9.539062 9.539062 9.539062c5.070313 5.070313 11.726563 7.601563 18.382813 7.601563s13.316406-2.53125 18.386719-7.601563c4.910156-4.910156 7.613281-11.4375 7.613281-18.382812 0-6.945313-2.703125-13.472657-7.613281-18.382813l-9.542969-9.542968 9.542969-9.539063c4.910156-4.914063 7.613281-11.441406 7.613281-18.386719zm-38.367187 34.996094 16.609374 16.613281h.003907c1.132812 1.132813 1.753906 2.636719 1.753906 4.242188 0 1.601562-.621094 3.105469-1.753906 4.238281-2.34375 2.339844-6.148438 2.339844-8.484375 0l-16.613282-16.609375c-1.875-1.875-4.417968-2.929687-7.070312-2.929687s-5.195312 1.054687-7.070312 2.929687l-16.609376 16.609375c-2.339843 2.339844-6.148437 2.339844-8.484374 0-1.132813-1.132812-1.757813-2.640625-1.757813-4.238281 0-1.605469.625-3.109375 1.757813-4.242188l16.609374-16.613281c3.90625-3.902344 3.90625-10.234375 0-14.140625l-16.609374-16.613281c-2.339844-2.339844-2.339844-6.144532 0-8.480469 2.335937-2.339844 6.144531-2.339844 8.480468-.003906l16.613282 16.613281c1.875 1.875 4.417968 2.929688 7.070312 2.929688s5.195312-1.054688 7.070312-2.929688l16.613282-16.609375c1.132812-1.136719 2.640625-1.757813 4.242187-1.757813 1.601563 0 3.105469.621094 4.242188 1.757813 1.132812 1.132813 1.753906 2.636719 1.753906 4.238281 0 1.601563-.621094 3.109375-1.757813 4.242188l-16.609374 16.613281c-3.90625 3.90625-3.90625 10.238281 0 14.140625zm0 0"></path></svg>