<!-- icon666.com - MILLIONS vector ICONS FREE --><svg id="Capa_1" enable-background="new 0 0 512 512" viewBox="0 0 512 512" xmlns="http://www.w3.org/2000/svg"><g><g><path clip-rule="evenodd" d="m435.11 204.83v206.39c0 4.07-.99 7.91-2.75 11.3-2.39 4.65-6.21 8.45-10.87 10.81-3.35 1.71-7.13 2.67-11.13 2.67h-341.43c-2.62 0-5.14-.41-7.52-1.18-5.22-1.67-9.7-5.04-12.78-9.45-2.82-4.01-4.48-8.89-4.48-14.15v-206.39c0-13.64 11.16-24.78 24.78-24.78h341.43c13.62 0 24.75 11.14 24.75 24.78z" fill="#fcd79f" fill-rule="evenodd"></path></g><g><path clip-rule="evenodd" d="m68.931 198.179v188.396c0 12.349 14.485 22.463 26.822 22.463h339.362v-26.57c-.028 0-.084 0-.14 0h-317.704c-13.871 0-25.231-11.343-25.231-25.229v-177.192h-23.11v18.132z" fill="#fac574" fill-rule="evenodd"></path></g><g><path clip-rule="evenodd" d="m460.18 151.52v205.72c0 2.79-.46 5.48-1.31 7.99-3.35 9.99-12.81 17.24-23.89 17.24h-317.71c-10.89 0-20.23-7-23.74-16.72-.97-2.66-1.49-5.53-1.49-8.51v-205.72c0-.39.01-.77.03-1.15.6-13.36 11.72-24.08 25.2-24.08h317.71c13.87 0 25.2 11.34 25.2 25.23z" fill="#fcd79f" fill-rule="evenodd"></path></g><g><path clip-rule="evenodd" d="m424.816 184.74v149.616l10.299 6.678 25.063 16.205v-201.584l-35.362 25.956z" fill="#fac574" fill-rule="evenodd"></path></g><g><path clip-rule="evenodd" d="m424.816 357.239c0 13.886-11.359 25.229-25.231 25.229h35.39.14c13.816-.084 25.064-11.399 25.064-25.229l-25.064-16.205-10.299-6.678z" fill="#fac574" fill-rule="evenodd"></path></g><g><path clip-rule="evenodd" d="m428.109 76c42.173 0 76.391 34.226 76.391 76.47 0 42.217-34.218 76.47-76.391 76.47-42.201 0-76.419-34.254-76.419-76.47.001-42.244 34.219-76.47 76.419-76.47z" fill="#fd4755" fill-rule="evenodd"></path></g><g><path clip-rule="evenodd" d="m405.334 79.437c21.882 6.845 39.549 23.274 48.062 44.396 3.573 8.829 5.554 18.496 5.554 28.638 0 5.867-.67 11.567-1.926 17.071-6.057 26.57-25.957 47.888-51.69 55.935 7.173 2.263 14.82 3.464 22.775 3.464 42.173 0 76.391-34.254 76.391-76.47 0-42.245-34.218-76.47-76.391-76.47-7.954-.001-15.602 1.2-22.775 3.436z" fill="#f92c3d" fill-rule="evenodd"></path></g></g><g><path d="m451.859 124.761c-3.146-2.697-7.881-2.333-10.576.811l-13.188 15.377-13.188-15.377c-2.696-3.144-7.431-3.508-10.576-.811-3.144 2.697-3.507 7.432-.811 10.576l14.694 17.133-14.694 17.133c-2.696 3.145-2.333 7.879.811 10.576 1.415 1.213 3.151 1.807 4.879 1.807 2.113 0 4.214-.888 5.697-2.617l13.188-15.377 13.188 15.377c1.483 1.729 3.584 2.617 5.697 2.617 1.728 0 3.464-.594 4.879-1.807 3.144-2.697 3.507-7.432.811-10.576l-14.694-17.133 14.694-17.133c2.696-3.145 2.333-7.879-.811-10.576z"></path><path d="m428.109 68.5c-46.273 0-83.919 37.669-83.919 83.971 0 23.621 9.813 44.98 25.555 60.252l-91.79 67.36c-1.528 1.12-2.777 2.084-3.822 2.892-.196.151-.397.308-.598.461-.196-.151-.395-.305-.588-.454-1.043-.808-2.288-1.771-3.82-2.897l-169.587-124.43v-4.134c0-9.776 7.954-17.729 17.731-17.729h204.527c4.143 0 7.5-3.357 7.5-7.5s-3.357-7.5-7.5-7.5h-204.527c-18.048 0-32.731 14.683-32.731 32.729v21.026h-15.609c-17.802 0-32.284 14.481-32.284 32.282v31.755h-28.533c-4.143 0-7.5 3.357-7.5 7.5s3.357 7.5 7.5 7.5h28.532v47.668h-29.146c-4.143 0-7.5 3.357-7.5 7.5s3.357 7.5 7.5 7.5h29.146v56.386h-29.146c-4.143 0-7.5 3.357-7.5 7.5s3.357 7.5 7.5 7.5h29.146v25.58c0 17.801 14.482 32.282 32.284 32.282h126.351c4.143 0 7.5-3.357 7.5-7.5s-3.357-7.5-7.5-7.5h-124.099l59.606-38.532h223.602l59.142 38.227c-1.03.193-2.088.306-3.174.306h-180.44c-4.143 0-7.5 3.357-7.5 7.5s3.357 7.5 7.5 7.5h180.44c17.786 0 32.257-14.481 32.257-32.282v-22.161c14.358-3.454 25.063-16.405 25.063-31.819v-130.75c26.357-14.174 44.322-42.032 44.322-74.018 0-46.302-37.633-83.971-83.891-83.971zm-328.569 105.756 122.974 90.25-122.974 79.495zm-47.894 30.573c0-9.529 7.754-17.282 17.284-17.282h15.61v111.705h-32.894zm3.2 216.37c-2.007-2.823-3.2-6.262-3.2-9.981v-96.966h32.894v42.986c0 14.149 9.028 26.228 21.625 30.786zm372.769-9.981c0 2.569-.578 5-1.586 7.193l-44.007-28.443h45.593zm7.361-36.25h-317.705c-8.302 0-15.269-5.741-17.189-13.456l135.374-87.51 24.797 18.175c1.404 1.031 2.55 1.92 3.511 2.663 3.923 3.039 6.843 4.559 9.766 4.559 2.921 0 5.845-1.518 9.773-4.552.963-.744 2.112-1.633 3.526-2.669l27.565-20.241 137.862 89.111c-1.746 7.95-8.825 13.92-17.28 13.92zm17.703-31.508-125.344-81.02 54.489-39.974c13.278 8.82 29.189 13.974 46.286 13.974 8.546 0 16.795-1.293 24.569-3.682zm-24.57-122.02c-38.002 0-68.919-30.939-68.919-68.97s30.917-68.97 68.919-68.97c37.986 0 68.891 30.94 68.891 68.971s-30.904 68.969-68.891 68.969z"></path></g></svg>