<!-- icon666.com - MILLIONS vector ICONS FREE --><svg viewBox="0 0 32 32" xmlns="http://www.w3.org/2000/svg"><g id="_28_Reload" data-name="28 Reload"><path d="m27.0156 5.001-1.7724 1.7715a12.264 12.264 0 0 0 -21.9649 7.0214 1.0147 1.0147 0 0 0 .999 1.0391h4.5142a1.0006 1.0006 0 0 0 .998-.9365 5.7553 5.7553 0 0 1 10.7671-2.4355l-1.666 1.665a1.0109 1.0109 0 0 0 .707 1.707h8.125a.9994.9994 0 0 0 1-1v-8.125a1.011 1.011 0 0 0 -1.707-.707z" fill="#3abeff" style="fill: rgb(156, 255, 56);"></path><path d="m27.7227 17.167h-4.5137a1.0009 1.0009 0 0 0 -.998.9365 5.7553 5.7553 0 0 1 -10.7671 2.4355l1.6655-1.665a1.011 1.011 0 0 0 -.707-1.707h-8.1251a1 1 0 0 0 -1 1v8.125a1.011 1.011 0 0 0 1.707.707l1.772-1.7715a12.2643 12.2643 0 0 0 21.9653-7.0215 1.0147 1.0147 0 0 0 -.9989-1.039z" fill="#3abeff" style="fill: rgb(156, 255, 56);"></path><path d="m27.7227 14.833h-8.125a1.0109 1.0109 0 0 1 -.707-1.707l1.666-1.665a5.7553 5.7553 0 0 0 -10.7667 2.4355 1.0006 1.0006 0 0 1 -.998.9365h-4.5147a1.0147 1.0147 0 0 1 -.999-1.0391 12.264 12.264 0 0 1 21.9649-7.0214l1.7724-1.7715a1.011 1.011 0 0 1 1.707.707v8.125a.9994.9994 0 0 1 -.9999 1zm-5.71-2h4.71v-4.7109l-.9111.9111a1.0149 1.0149 0 0 1 -1.5566-.1787 10.2638 10.2638 0 0 0 -18.8863 3.9785h2.542a7.7547 7.7547 0 0 1 14.7778-1.55c.2761.6654-.2543 1.1285-.6758 1.55zm-5.5479 17.167a12.1814 12.1814 0 0 1 -9.7085-4.7725l-1.7719 1.7715a1.011 1.011 0 0 1 -1.707-.707v-8.125a1 1 0 0 1 1-1h8.125a1.011 1.011 0 0 1 .707 1.707l-1.6655 1.665a5.7553 5.7553 0 0 0 10.7671-2.4355 1.0009 1.0009 0 0 1 .998-.9365h4.5137a1.0147 1.0147 0 0 1 .999 1.0391 12.2326 12.2326 0 0 1 -12.2569 11.7939zm-9.5693-7.3262a.8969.8969 0 0 1 .1143.0068.9972.9972 0 0 1 .7349.4648 10.2638 10.2638 0 0 0 18.8862-3.9784h-2.5409a7.7544 7.7544 0 0 1 -14.778 1.5488 1 1 0 0 1 .2168-1.09l.459-.459h-4.71v4.7109l.9111-.9111a1 1 0 0 1 .7066-.2928z" fill="#000000" style="fill: rgb(0, 173, 3);"></path></g></svg>